<svg xmlns="http://www.w3.org/2000/svg" viewBox="0 0 512 512" width="512" height="512">
  <defs>
    <linearGradient id="bg" x1="0" y1="0" x2="1" y2="1">
      <stop offset="0%" stop-color="#f8f5f7"/>
      <stop offset="100%" stop-color="#e0f2fe"/>
    </linearGradient>
    <linearGradient id="accent" x1="0" y1="0" x2="1" y2="1">
      <stop offset="0%" stop-color="#f53d93"/>
      <stop offset="100%" stop-color="#60a5fa"/>
    </linearGradient>
  </defs>
  <rect width="512" height="512" rx="112" fill="url(#bg)"/>
  <!-- Cloud shape -->
  <g transform="translate(256,220)">
    <ellipse cx="0" cy="20" rx="120" ry="60" fill="white" opacity="0.9"/>
    <circle cx="-60" cy="-10" r="60" fill="white" opacity="0.9"/>
    <circle cx="30" cy="-30" r="70" fill="white" opacity="0.9"/>
    <circle cx="70" cy="0" r="50" fill="white" opacity="0.9"/>
  </g>
  <!-- Fork icon -->
  <g transform="translate(210,300)" fill="url(#accent)">
    <rect x="0" y="0" width="8" height="60" rx="4"/>
    <rect x="20" y="0" width="8" height="60" rx="4"/>
    <rect x="40" y="0" width="8" height="60" rx="4"/>
    <rect x="-4" y="55" width="56" height="10" rx="5"/>
    <rect x="16" y="60" width="16" height="50" rx="8"/>
  </g>
  <!-- Spoon icon -->
  <g transform="translate(270,300)" fill="url(#accent)">
    <ellipse cx="20" cy="20" rx="24" ry="28"/>
    <rect x="12" y="42" width="16" height="50" rx="8"/>
  </g>
</svg>
